<?xml version="1.0" encoding="UTF-8"?>
<svg width="85px" height="86px" viewBox="0 0 85 86" version="1.1" xmlns="http://www.w3.org/2000/svg" xmlns:xlink="http://www.w3.org/1999/xlink">
    <!-- Generator: Sketch 60.1 (88133) - https://sketch.com -->
    <title>Group 84</title>
    <desc>Created with Sketch.</desc>
    <defs>
        <linearGradient x1="50%" y1="0%" x2="50%" y2="100%" id="linearGradient-1">
            <stop stop-color="#5B9ADB" offset="0%"></stop>
            <stop stop-color="#2E61B4" offset="100%"></stop>
        </linearGradient>
        <linearGradient x1="50%" y1="0%" x2="50%" y2="100%" id="linearGradient-2">
            <stop stop-color="#FFDC00" offset="0%"></stop>
            <stop stop-color="#FFB600" offset="100%"></stop>
        </linearGradient>
        <linearGradient x1="50%" y1="0%" x2="50%" y2="100%" id="linearGradient-3">
            <stop stop-color="#FFDC00" offset="0%"></stop>
            <stop stop-color="#FFB600" offset="100%"></stop>
        </linearGradient>
    </defs>
    <g id="Page-1" stroke="none" stroke-width="1" fill="none" fill-rule="evenodd">
        <g id="Group-84">
            <path d="M22.4472818,5.65318969 C22.427294,7.23922356 23.7691432,8.6047251 25.3361887,8.59373179 C26.9062323,8.58240536 28.2280937,7.20124669 28.1861193,5.61587909 C28.1448111,4.05949382 26.8769168,2.84723227 25.2975455,2.85422801 C23.7354971,2.86122375 22.4669365,4.10713147 22.4472818,5.65318969 Z M59.8038593,2.86555445 C58.201169,2.81525176 56.8136808,4.11212843 56.7990231,5.67417691 C56.7843653,7.2002473 58.2131617,8.62071536 59.741564,8.59906188 C61.2696331,8.57774153 62.5175396,7.29918703 62.5345293,5.73580603 C62.5528515,4.10879712 61.4182093,2.91585714 59.8038593,2.86555445 Z M7.93678753,80.6048662 C7.81719371,81.9203982 8.33221332,82.2275444 9.58445052,82.2255649 C31.5494039,82.1915663 53.5140241,82.2015602 75.4793106,82.1972295 C75.9673467,82.1972295 76.4550496,82.1429293 77.1442964,82.1022874 L77.1442964,60.2112889 C78.004106,60.2112889 78.6520446,60.2269461 79.299317,60.2082908 C81.6895277,60.1403322 82.8528191,58.6509061 82.295825,56.3486419 C81.1405288,51.5735506 79.9012837,46.8177809 78.8302694,42.0240344 C78.1363588,38.9179265 77.3101954,35.7728423 77.1916009,32.6207624 C76.9410869,25.9434965 77.0936606,19.2499072 77.1343025,12.5629806 C77.1416314,11.3603798 76.8554724,10.8383645 75.5199526,10.8403462 C53.5086941,10.8743426 31.4971024,10.8720106 9.48584392,10.8460265 C8.26791915,10.844694 7.92246292,11.2444504 7.9321237,12.4580445 C7.98775648,19.4694402 7.96477048,26.4821684 7.94944648,33.4942303 C7.94811396,34.1348401 7.8784897,34.7914401 7.72958041,35.414394 C6.08125116,42.3111928 4.40926965,49.2029946 2.74728205,56.0967953 C2.13132393,58.653238 3.29827974,60.1676489 5.91268717,60.2106227 C6.51298817,60.2206166 7.11395542,60.2122883 7.95944039,60.2122883 C7.95944039,61.5914482 8.04438865,79.4185888 7.93678753,80.6048662 Z M76.731881,0.480007603 C79.6484377,0.480673864 80.1671217,1.00002417 80.1667886,3.8576168 C80.1661223,12.2185237 80.3170304,20.582762 80.1144871,28.938672 C79.9745724,34.7058256 80.6308393,40.2950876 82.1875576,45.8320481 C83.1659616,49.3099295 83.9135063,52.8531045 84.7446666,56.3716279 C85.3416363,58.8990883 83.8462139,61.5614665 81.3424058,62.2743655 C80.4549464,62.5268784 80.1061589,62.9266349 80.1571278,63.8200906 C80.2074305,64.6995549 80.1821126,82.2078897 80.167788,83.090019 C80.1431363,84.5887727 79.2876575,85.4788972 77.7719141,85.5878308 C77.4021394,85.6144812 77.0290333,85.5968253 76.6575929,85.5968253 C53.8977904,85.5968253 31.1379878,85.5971585 8.37785218,85.5968253 C5.40799461,85.5968253 4.70842075,84.8905889 4.6990931,81.8950803 C4.69742745,81.4306965 4.67577397,64.3414397 4.70042562,63.8787216 C4.74906266,62.9752719 4.45424225,62.5008942 3.47350633,62.2137358 C1.15058801,61.5328173 -0.309189435,58.5513001 0.271456864,56.3063343 C1.72124039,50.6987502 3.01978272,45.0518566 4.330984,39.4092938 C4.57017163,38.3809202 4.68077093,37.2992458 4.68343597,36.242223 C4.70842075,25.5127589 4.69676119,14.7829616 4.70009249,4.05316435 C4.70109188,1.10795842 5.33503905,0.480673864 8.31322489,0.480007603 C19.7395978,0.476676299 31.1659708,0.478080403 42.5923437,0.478080403 C53.9720784,0.478080403 65.3518131,0.476676299 76.731881,0.480007603 Z" id="Fill-4" fill="url(#linearGradient-1)"></path>
            <path d="M62.776575,30.4379587 C62.7745831,31.549948 63.6513823,32.4763837 64.7577084,32.5320164 C65.9406545,32.5913137 66.9450426,31.7101837 67.0070049,30.5572194 C67.0679677,29.4112508 66.1345363,28.4401757 64.9462602,28.4141915 C63.7406612,28.3872079 62.7789138,29.2846612 62.776575,30.4379587 Z M18.1987365,30.4706055 C18.2053991,31.6202385 19.1801386,32.5530037 20.356089,32.5353477 C21.4754071,32.5183581 22.3868519,31.6362288 22.4251619,30.5322346 C22.4658038,29.3672776 21.544032,28.4271836 20.3480938,28.4138584 C19.147825,28.4005331 18.1917407,29.3153092 18.1987365,30.4706055 Z M5.91255392,60.2104894 C3.29847962,60.1675156 2.13119067,58.6531048 2.74748193,56.0969952 C4.4091364,49.2028614 6.08111791,42.3113927 7.72978029,35.4145939 C7.87835645,34.79164 7.94831384,34.13504 7.94964636,33.4940971 C7.96497036,26.4820351 7.98795636,19.4696401 7.93232358,12.4582444 C7.9226628,11.2443172 8.2677859,10.8445607 9.4860438,10.8462264 C31.4973023,10.8718774 53.5085608,10.8745424 75.5198193,10.840213 C76.8553391,10.8382312 77.1414981,11.3605797 77.1345024,12.5628473 C77.0938605,19.249774 76.9412867,25.9433633 77.1918008,32.6209623 C77.3100621,35.7730422 78.1365586,38.9177932 78.8304693,42.0239011 C79.9014835,46.8176477 81.1403955,51.5737505 82.2956918,56.3485086 C82.8526858,58.651106 81.6897276,60.1401989 79.2995169,60.2081575 C78.6522445,60.2268128 78.0039727,60.2111557 77.1441632,60.2111557 L77.1441632,82.1024872 C76.4552495,82.1431292 75.9672134,82.1974294 75.4791774,82.1974294 C53.514224,82.2017601 31.5492706,82.1914331 9.58431727,82.2257647 C8.3324132,82.2277443 7.81739359,81.920598 7.93665427,80.6050661 C8.04458853,79.4184556 7.95964027,61.5916481 7.95964027,60.2121551 C7.11382217,60.2121551 6.51285491,60.2208165 5.91255392,60.2104894 Z" id="Fill-50" fill="#FFFFFF"></path>
            <g id="Group-5" transform="translate(17.994927, 2.854198)">
                <path d="M44.539702,2.8817414 C44.5223792,4.4451224 43.2748058,5.7236769 41.7464035,5.74499724 C40.2180012,5.76631759 38.7892049,4.34618267 38.8038626,2.82011227 C38.8188535,1.25806379 40.2063416,-0.0388128801 41.809032,0.0111566809 C43.4230488,0.0617925027 44.5580241,1.25473249 44.539702,2.8817414" id="Fill-52" fill="#FFFFFF"></path>
                <path d="M7.30261827,0 C8.88198953,-0.00696561324 10.1498839,1.20529594 10.191192,2.7616812 C10.2331665,4.3470488 8.91130501,5.72820747 7.3412614,5.7395339 C5.77421597,5.75052721 4.43236669,4.38502567 4.45235451,2.7989918 C4.47200921,1.25293359 5.7405698,0.00702586385 7.30261827,0" id="Fill-54" fill="#FFFFFF"></path>
                <path d="M2.35316657,25.5596605 C3.54910473,25.5729857 4.47087656,26.5130797 4.43023465,27.6780367 C4.39192466,28.7820309 3.48047986,29.6641602 2.3611617,29.6811499 C1.18521136,29.6988058 0.210471791,28.7660406 0.203771023,27.6164076 C0.196813444,26.4611113 1.15256458,25.5463353 2.35316657,25.5596605" id="Fill-76" fill="#4F4F4F"></path>
                <path d="M46.9513329,25.5599936 C48.1396091,25.5859778 49.0730405,26.5570529 49.0120776,27.7030215 C48.9501154,28.8559858 47.9457272,29.7371158 46.7627811,29.6778186 C45.656455,29.6221858 44.7796558,28.6957501 44.7816512,27.5837608 C44.7839865,26.4304634 45.745734,25.53301 46.9513329,25.5599936" id="Fill-78" fill="#4F4F4F"></path>
            </g>
            <polygon id="Rectangle" fill="#ECECEC" points="7.59126467 59.8435463 77.4087353 59.8435463 77.4087353 62.3370274 7.59126467 62.3370274"></polygon>
            <path d="M50.1340701,43.2491114 C50.5248627,43.4560463 50.9196545,44.128992 50.784534,44.4297343 C50.4811556,45.1064043 49.7509906,44.9057543 49.1285221,44.5940717 C45.2277383,42.6411093 41.3458087,42.750978 37.4238856,44.591744 C37.0502331,44.7670218 36.3823435,44.5256366 35.8507171,44.4779182 C36.045542,44.0663762 36.0915344,43.4753665 36.4591879,43.2735526 C38.5951205,42.1010768 41.0155775,41.6071333 43.1286568,41.5580183 C45.966759,41.5980551 48.1555401,42.2009363 50.1340701,43.2491114 Z" id="Fill-74" fill="#4F4F4F"></path>
            <g id="Group-6" transform="translate(5.928944, 64.830508)">
                <g id="Group-3" transform="translate(42.018909, 0.181770)">
                    <path d="M1.64589064,11.9659404 C3.63667795,10.5441398 5.55844065,9.21987984 5.49741115,6.69315233 C5.43984622,4.30020999 3.64653861,2.97328496 1.64589064,1.65009098 L1.64589064,11.9659404 Z M4.28081891,1.54801982 C7.99802124,5.12477437 7.91860295,8.53496372 4.46390738,12.0456252 C6.33876531,12.0456252 7.93246118,12.0549529 9.52535753,12.0357645 C9.76947549,12.032833 10.0426424,11.9470186 10.2505158,11.816698 C13.5951451,9.71984195 13.6399178,3.85221622 10.3325991,1.76975142 C10.1796256,1.67380986 10.0008012,1.5589465 9.83290352,1.55734747 C8.09982589,1.54189022 6.36648176,1.54801982 4.28081891,1.54801982 L4.28081891,1.54801982 Z M15.7706199,7.64164122 C14.8066737,7.63604463 14.3248339,7.85377867 14.0985718,8.88035333 C13.710808,10.6403479 12.6583824,12.0501558 11.2235231,13.1276328 C10.8416224,13.4146579 10.292357,13.6118711 9.81638025,13.6190667 C6.88243413,13.663573 3.9476885,13.6214653 1.01347588,13.6550448 C0.227554623,13.6638395 -0.00297161886,13.3818779 0.0028914763,12.6143454 C0.0332729694,8.75216475 0.0324734564,4.88945106 0.000111267491,1.02727037 C-0.00643617509,0.240549602 0.275258897,-0.00729942081 1.03506273,0.000162700301 C3.96954186,0.0281456545 6.90455399,-0.0147615419 9.8379671,0.0377398102 C10.3472569,0.0468009573 10.9332999,0.281058259 11.3421175,0.595533363 C12.7985637,1.71591755 13.808082,3.18462289 14.1478751,5.00644645 C14.3200368,5.92855142 14.720918,6.14806854 15.6288396,6.15428058 C23.271011,6.20656873 28.5904374,6.20656873 29.5878032,6.14441992 C30.2220991,6.10489507 31.2284038,5.81502058 31.2476125,6.88796699 C31.2673134,7.99929003 30.2383402,7.64297375 29.6181846,7.64537229 C23.1176111,7.6709567 22.307971,7.67975134 15.7706199,7.64164122 Z" id="Fill-6" fill="#5796D8"></path>
                    <path d="M4.28073896,1.54793987 C6.36640181,1.54793987 8.09974594,1.54207678 9.83282357,1.55753403 C10.0007213,1.55913305 10.1798122,1.67372991 10.3325192,1.76993797 C13.6398379,3.85213627 13.5950651,9.72002851 10.2504358,11.816618 C10.0425625,11.9469387 9.76966204,12.032753 9.52554408,12.0359511 C7.93238123,12.0551394 6.33895186,12.0458118 4.46382743,12.0458118 C7.918523,8.53488377 7.99794129,5.12469442 4.28073896,1.54793987" id="Fill-56" fill="url(#linearGradient-2)"></path>
                    <path d="M2.05473493,8.77257898 C2.42624196,9.1432865 2.64077794,9.35728947 2.85584693,9.57182545 C3.06505283,9.35755597 3.45388264,9.13209332 3.44135693,8.93221507 C3.42296814,8.63906031 3.11648816,8.36402785 2.93313319,8.08153326 C2.69701035,8.26728678 2.46088752,8.45304029 2.05473493,8.77257898 M3.65429389,5.30882226 C3.42989725,4.8245839 3.22841998,4.38938234 3.0266762,3.95444728 C2.79908151,4.20682688 2.42490944,4.43175653 2.37187508,4.71664965 C2.24022194,5.42528465 2.63411533,5.64914829 3.65429389,5.30882226 M1.64591729,11.9658338 L1.64591729,1.64998438 C3.64656526,2.97317835 5.43987287,4.30010339 5.4974378,6.69304573 C5.55820079,9.22003974 3.6367046,10.5440332 1.64591729,11.9658338" id="Fill-58" fill="#FFB600"></path>
                    <path d="M3.65429389,5.30892886 C2.63411533,5.64898838 2.24022194,5.42539125 2.37187508,4.71648975 C2.42490944,4.43186313 2.79908151,4.20666697 3.02694271,3.95455388 C3.22841998,4.38948894 3.42989725,4.824424 3.65429389,5.30892886" id="Fill-80" fill="#FFFFFF"></path>
                    <path d="M2.05473493,8.77257898 C2.46088752,8.45304029 2.69701035,8.26728678 2.93313319,8.08153326 C3.11648816,8.36402785 3.42296814,8.63906031 3.44135693,8.93221507 C3.45388264,9.13209332 3.06505283,9.35755597 2.85584693,9.57182545 C2.64077794,9.35728947 2.42624196,9.1432865 2.05473493,8.77257898" id="Fill-82" fill="#FFFFFF"></path>
                </g>
                <g id="Group-4">
                    <path d="M21.0102,1.59523134 C20.6235022,1.60935607 20.1797725,1.69890152 19.8700945,1.91130547 C16.6310009,4.13208601 16.6576514,9.5903611 19.9084711,11.804479 C20.1392639,11.9617166 20.4524065,12.0736484 20.7285049,12.0757804 C23.0657479,12.0968343 25.4037903,12.1138906 27.7394342,12.0517951 C28.0192638,12.0443329 28.5138958,11.5632926 28.5237565,11.2877271 C28.6295587,8.36177616 28.650346,5.43289362 28.7124415,2.5050771 C28.7262997,1.84814394 28.4723211,1.55978626 27.7983317,1.57577652 C26.649165,1.60322647 25.4983993,1.58350515 24.3484332,1.5805736 C23.2355111,1.5805736 22.121523,1.55392317 21.0102,1.59523134 Z M30.2405773,4.13341853 C31.5805611,4.13341853 32.837662,4.0699905 34.0822372,4.16753109 C34.5249009,4.20217665 35.2639173,4.58834142 35.3001619,4.88362821 C35.4030326,5.72551537 34.6267055,5.68474021 34.039863,5.69353485 C32.8235372,5.71139064 31.606412,5.69886494 30.4684385,5.69886494 C30.3535752,5.88968204 30.2893476,5.948846 30.2834845,6.01334004 C30.0492272,8.54433162 30.0500267,8.54406512 32.6018056,8.54459813 C33.2334209,8.54486463 33.8839579,8.45745121 34.4889228,8.58537329 C34.8185886,8.65519742 35.0704352,9.09253102 35.3574604,9.36436543 C35.0752323,9.5842315 34.8089945,9.96426667 34.5081111,9.99411515 C33.6249157,10.0820616 32.7275957,10.0314258 31.8361387,10.0338243 C30.2344477,10.0378219 30.2341812,10.0375554 30.2328487,11.586745 C30.2323157,12.2516733 30.2328487,12.9163351 30.2328487,13.7025228 C29.8069748,13.7270412 29.4517245,13.7640853 29.0964742,13.7648849 C26.309905,13.7696819 23.5222698,13.8093911 20.7375661,13.7361024 C20.0942246,13.7193126 19.3541421,13.4461457 18.8440528,13.0514528 C17.5259225,12.0318072 16.5172036,10.691557 16.1864717,9.04429374 C15.9543464,7.88926399 15.3861625,7.73006834 14.3641151,7.72802887 C9.4359438,7.71819486 2.45419673,7.71819486 1.61681349,7.74588466 C1.24666682,7.75812432 0.839420374,7.81437628 0.515617618,7.68512168 C0.274431204,7.58891362 -0.00486532926,7.22167066 0.000130398429,6.98048424 C0.00499533079,6.75129052 0.318937426,6.40803295 0.56438791,6.33207922 C0.939359496,6.21614984 1.3920205,6.21554708 1.78071365,6.27877835 C2.28427268,6.36069562 1.66787306,6.38136386 3.40655914,6.34858091 C3.99327204,6.33751843 13.1597619,6.32036947 14.41635,6.29743365 C15.4212299,6.27909213 15.9151703,6.09942094 16.1587553,5.00328865 C16.3844844,3.98764067 16.9318843,2.99491205 17.527255,2.12131087 C18.483206,0.718165601 19.7136565,-0.11306139 21.627424,0.0124621473 C24.4315825,0.196616636 27.2573279,0.059633413 30.2405773,0.059633413 L30.2405773,4.13341853 Z" id="Fill-8" fill="#5897D8"></path>
                    <path d="M21.0102,1.59523134 C20.6235022,1.60935607 20.1797725,1.69890152 19.8700945,1.91130547 C16.6310009,4.13208601 16.6576514,9.5903611 19.9084711,11.804479 C20.1392639,11.9617166 20.4524065,12.0736484 20.7285049,12.0757804 C23.0657479,12.0968343 25.4037903,12.1138906 27.7394342,12.0517951 C28.0192638,12.0443329 28.5138958,11.5632926 28.5237565,11.2877271 C28.6295587,8.36177616 28.650346,5.43289362 28.7124415,2.5050771 C28.7262997,1.84814394 28.4723211,1.55978626 27.7983317,1.57577652 C26.649165,1.60322647 25.4983993,1.58350515 24.3484332,1.5805736 C23.2355111,1.5805736 22.121523,1.55392317 21.0102,1.59523134 Z" id="Path" fill="url(#linearGradient-3)"></path>
                </g>
            </g>
        </g>
    </g>
</svg>